<?xml version="1.0" standalone="no"?>
<!DOCTYPE svg PUBLIC "-//W3C//DTD SVG 20010904//EN"
 "http://www.w3.org/TR/2001/REC-SVG-20010904/DTD/svg10.dtd">
<svg version="1.0" xmlns="http://www.w3.org/2000/svg"
 width="317.000000pt" height="317.000000pt" viewBox="0 0 317.000000 317.000000"
 preserveAspectRatio="xMidYMid meet">
<metadata>
Created by potrace 1.11, written by Peter Selinger 2001-2013
</metadata>
<g transform="translate(0.000000,317.000000) scale(0.100000,-0.100000)"
fill="#000000" stroke="none">
<path d="M1451 2663 c-9 -10 -9 -13 0 -13 8 0 8 -4 -1 -15 -7 -8 -9 -15 -4
-15 5 0 8 -44 7 -97 l-2 -98 307 0 307 0 3 -122 2 -123 -309 0 c-196 0 -312 4
-316 10 -3 6 -3 10 2 10 4 0 6 43 3 96 -3 52 -1 99 3 103 5 5 3 13 -5 17 -14
10 -607 14 -609 5 -1 -4 -2 -246 -3 -539 -1 -469 0 -533 14 -536 25 -7 584 -1
595 6 6 3 9 52 7 121 l-3 116 -147 -1 c-81 0 -157 1 -168 1 -22 1 -22 2 -22
296 l0 295 168 0 c150 0 169 -2 175 -17 3 -10 1 -19 -4 -21 -6 -2 -8 -8 -5
-13 3 -6 6 -129 5 -274 0 -243 1 -265 17 -266 9 0 148 -1 307 -2 l290 -2 0
-120 0 -120 -295 -2 c-162 -1 -301 -2 -308 -2 -7 -1 -12 -9 -10 -18 1 -10 -1
-24 -5 -30 -5 -7 -5 -13 0 -13 4 0 7 -40 5 -90 l-2 -90 448 0 449 0 0 788 0
789 -442 -1 c-348 0 -444 -3 -454 -13z"/>
<path d="M216 889 c-15 -4 -37 -16 -48 -26 -23 -20 -62 -97 -45 -86 7 4 6 -1
-2 -10 -7 -9 -9 -17 -3 -17 12 0 10 -33 -3 -42 -6 -5 -5 -8 2 -8 9 0 10 -7 3
-24 -5 -15 -5 -27 3 -35 8 -8 7 -11 -4 -11 -11 0 -12 -2 0 -9 9 -6 10 -10 2
-16 -9 -5 -9 -11 1 -22 7 -8 17 -25 23 -36 11 -23 61 -55 95 -62 30 -6 88 20
114 50 12 14 23 41 24 60 3 34 2 35 -37 35 -33 0 -39 -3 -36 -18 7 -40 -47
-73 -80 -48 -16 12 -19 28 -20 122 -2 115 7 144 47 144 25 0 59 -36 52 -55 -6
-15 -3 -17 44 -19 25 -1 27 2 26 37 -2 69 -82 117 -158 96z"/>
<path d="M1057 889 c-15 -4 -39 -18 -55 -31 -25 -23 -30 -31 -37 -68 -4 -22
23 -83 43 -95 9 -5 41 -24 72 -41 64 -37 75 -64 36 -90 -24 -15 -28 -15 -51 0
-16 10 -25 26 -25 42 0 23 -3 25 -37 22 -32 -2 -38 -7 -39 -26 -2 -33 36 -84
76 -104 109 -52 227 76 151 164 -12 13 -48 37 -81 53 -66 32 -80 54 -56 90 18
28 24 29 60 15 21 -8 26 -16 26 -45 0 -19 3 -35 8 -36 58 -8 67 -4 68 29 1 83
-78 144 -159 121z"/>
<path d="M1620 893 c-62 -9 -102 -72 -101 -158 2 -144 7 -182 27 -203 34 -36
86 -53 129 -41 41 12 94 57 96 83 1 9 2 24 3 34 1 13 -8 18 -36 20 -33 3 -37
1 -43 -27 -4 -17 -13 -35 -22 -39 -23 -14 -60 -2 -70 21 -7 18 -10 151 -4 215
0 7 13 17 27 23 21 7 32 6 51 -7 14 -8 22 -18 19 -21 -3 -3 -1 -14 4 -24 7
-12 19 -16 37 -14 16 2 31 4 35 4 10 1 -1 53 -18 78 -27 42 -80 64 -134 56z"/>
<path d="M411 833 c11 -32 24 -67 29 -78 30 -72 37 -107 36 -178 -1 -83 4 -90
59 -85 19 2 21 8 19 87 -1 57 3 95 13 114 7 15 11 27 8 27 -4 0 1 12 9 28 8
15 24 53 35 85 l21 57 -34 0 c-18 0 -39 -7 -46 -15 -7 -8 -10 -15 -7 -15 4 0
-1 -19 -9 -42 -9 -24 -17 -48 -18 -55 -6 -33 -17 -18 -38 51 l-23 76 -37 0
-38 0 21 -57z"/>
<path d="M683 884 c3 -4 2 -15 -4 -25 -5 -11 -6 -19 -2 -19 10 0 9 -52 -1 -68
-4 -7 -4 -12 1 -12 10 0 9 -52 -1 -68 -4 -7 -4 -12 1 -12 7 0 8 -36 3 -125 -3
-66 0 -69 75 -66 38 1 83 8 100 16 35 14 78 62 69 76 -3 5 -1 9 3 9 14 0 3 68
-13 81 -18 15 -18 24 3 55 9 14 18 36 19 49 4 34 -32 84 -71 101 -33 14 -195
21 -182 8z m167 -83 c14 -27 13 -37 -6 -55 -15 -16 -75 -22 -87 -9 -4 3 -2 12
4 19 6 7 6 14 0 18 -5 3 -7 15 -4 26 7 28 78 29 93 1z m-11 -155 c34 -41 7
-86 -51 -86 -29 0 -30 2 -30 45 0 53 1 55 36 55 18 0 39 -6 45 -14z"/>
<path d="M1265 698 c1 -106 3 -197 7 -203 4 -6 47 -9 107 -7 56 2 99 7 96 12
-3 5 -1 11 5 15 7 4 7 12 0 26 -9 16 -22 19 -74 19 l-64 0 1 50 0 50 58 0 c73
0 92 7 80 28 -5 10 -9 22 -10 27 -1 6 -18 11 -39 11 -20 1 -49 2 -64 3 -25 1
-26 4 -25 46 l1 45 53 1 c29 1 59 2 66 3 6 0 13 16 14 34 l1 32 -106 0 -107 0
0 -192z"/>
<path d="M1827 883 c-2 -5 -3 -93 -3 -198 l1 -190 85 0 c140 0 168 35 166 206
-2 120 -14 151 -71 175 -36 15 -171 20 -178 7z m161 -75 c5 -7 9 -26 8 -43 -1
-16 1 -39 5 -50 3 -11 3 -29 -1 -40 -4 -11 -4 -30 1 -42 12 -33 -23 -73 -66
-73 l-34 0 1 130 2 130 37 0 c20 0 41 -6 47 -12z"/>
<path d="M2130 691 c0 -183 1 -199 18 -203 10 -3 27 -2 39 3 20 7 21 13 20
203 l0 196 -38 0 -38 0 -1 -199z"/>
<path d="M2322 878 c0 -7 -3 -26 -7 -43 -49 -239 -51 -245 -60 -306 -6 -33 -4
-37 19 -41 28 -6 36 -1 52 26 19 35 104 23 104 -15 0 -5 16 -9 35 -9 19 0 35
1 35 3 0 2 -5 29 -10 60 -6 31 -13 69 -15 84 -3 15 -9 51 -15 78 -6 28 -13 61
-15 75 -21 101 -16 95 -71 98 -36 2 -51 -1 -52 -10z m65 -154 c1 -10 4 -35 6
-55 2 -19 7 -41 12 -48 14 -23 -38 -37 -62 -17 -1 1 4 24 11 51 7 28 12 60 11
73 -2 27 19 24 22 -4z"/>
<path d="M2549 863 c0 -16 -1 -106 -2 -201 l-2 -173 39 3 40 3 0 83 0 82 43 0
c32 0 43 -4 43 -15 0 -8 4 -15 9 -15 5 0 8 -30 7 -67 l-1 -68 38 -3 c25 -2 37
1 38 10 6 75 0 140 -14 162 -16 24 -16 27 2 58 36 63 14 125 -56 154 -18 8
-66 14 -108 14 l-75 0 -1 -27z m169 -56 c19 -15 14 -55 -7 -67 -11 -5 -35 -10
-53 -10 -32 0 -33 1 -34 45 0 33 3 45 15 47 22 5 64 -3 79 -15z"/>
<path d="M2813 883 c3 -5 22 -53 43 -108 31 -82 39 -115 40 -180 2 -44 3 -86
3 -93 1 -9 13 -12 39 -10 l37 3 1 85 c1 69 7 101 32 170 18 47 36 93 42 102
18 31 11 39 -26 36 -36 -3 -37 -5 -60 -71 -12 -38 -25 -71 -27 -73 -3 -3 -9 8
-15 25 -6 16 -8 32 -5 35 4 3 1 6 -6 6 -7 0 -10 4 -7 9 3 4 0 22 -7 40 -10 27
-16 31 -50 31 -21 0 -36 -3 -34 -7z"/>
</g>
</svg>
